<svg xmlns="http://www.w3.org/2000/svg" baseProfile="basic" viewBox="0 0 100 100"><path fill="#ffa340" d="M17.292,74c0.363,3.277,3.428,6.459,6.708,6.919c14,1.875,28,1.875,42,0	c3.28-0.459,6.345-3.642,6.708-6.919c1.756-16.667,1.756-33.333,0-50c-0.364-3.277-3.427-6.459-6.708-6.919c-14-1.875-28-1.875-42,0	c-3.28,0.459-6.344,3.641-6.708,6.919C15.536,40.667,15.536,57.333,17.292,74z"/><path fill="#81d4fa" d="M37.531,85c0.244,2.187,2.279,4.316,4.469,4.645c12,1.741,24,1.741,36,0	c2.189-0.329,4.224-2.457,4.469-4.645c1.575-14.667,1.575-29.333,0-44c-0.245-2.188-2.279-4.316-4.469-4.645	c-12-1.741-24-1.741-36,0c-2.19,0.329-4.225,2.457-4.469,4.645C35.956,55.667,35.956,70.333,37.531,85z"/><path fill="#c9dcf4" d="M52.637,14.757C52.405,10.611,48.754,7.014,45,7c-3.755,0.014-7.405,3.611-7.637,7.757	c-2.546,0.038-5.091,0.096-7.637,0.172c-1.201,0.041-2.274,0.971-2.31,2.07c-0.096,3,0.24,6,1.008,9	c0.289,1.099,1.481,2.109,2.576,2.234c9.333,1.021,18.667,1.021,28,0c1.095-0.126,2.287-1.135,2.576-2.234c0.768-3,1.104-6,1.008-9	c-0.036-1.099-1.109-2.029-2.31-2.07C57.728,14.853,55.183,14.796,52.637,14.757z"/><path fill="#4a254b" d="M45,18.5c-1.93,0-3.5-1.57-3.5-3.5s1.57-3.5,3.5-3.5s3.5,1.57,3.5,3.5S46.93,18.5,45,18.5z M45,12.5	c-1.379,0-2.5,1.122-2.5,2.5s1.121,2.5,2.5,2.5s2.5-1.122,2.5-2.5S46.379,12.5,45,12.5z"/><circle cx="49.428" cy="50.58" r="5.549" fill="#fff"/><circle cx="48.656" cy="48.981" r="2.274" fill="#4a254b"/><path fill="#4a254b" d="M60,62c2.596,0,4.734-1.957,5.02-4.476c0.035-0.304-0.187-0.576-0.493-0.576	c-1.741,0-7.309,0-9.053,0c-0.307,0-0.529,0.272-0.494,0.577C55.266,60.043,57.405,62,60,62z"/><circle cx="70.572" cy="50.58" r="5.549" fill="#fff"/><circle cx="69.8" cy="48.981" r="2.274" fill="#4a254b"/><path fill="#4a254b" d="M73.5,70.5h-27c-0.276,0-0.5-0.224-0.5-0.5s0.224-0.5,0.5-0.5h27c0.276,0,0.5,0.224,0.5,0.5	S73.776,70.5,73.5,70.5z"/><path fill="#4a254b" d="M73.5,79.5h-27c-0.276,0-0.5-0.224-0.5-0.5s0.224-0.5,0.5-0.5h27c0.276,0,0.5,0.224,0.5,0.5	S73.776,79.5,73.5,79.5z"/></svg>